<mxfile host="app.diagrams.net" agent="Mozilla/5.0 (Windows NT 10.0; Win64; x64) AppleWebKit/537.36 (KHTML, like Gecko) Chrome/138.0.0.0 Safari/537.36" version="28.0.7">
  <diagram name="Page-1" id="Lc0Ku1npNIDJBLgFfslH">
    <mxGraphModel grid="1" page="1" gridSize="10" guides="1" tooltips="1" connect="1" arrows="1" fold="1" pageScale="1" pageWidth="827" pageHeight="1169" math="0" shadow="0">
      <root>
        <mxCell id="0" />
        <mxCell id="1" parent="0" />
        <mxCell id="qOFUqXaEyahtBM9zJrHG-12" value="" style="edgeStyle=none;curved=1;rounded=0;orthogonalLoop=1;jettySize=auto;html=1;fontSize=12;startSize=8;endSize=8;" edge="1" parent="1" source="jCC4d6OGvIc_1nwTDhuA-1" target="qOFUqXaEyahtBM9zJrHG-11">
          <mxGeometry relative="1" as="geometry" />
        </mxCell>
        <mxCell id="jCC4d6OGvIc_1nwTDhuA-1" value="&amp;nbsp;Collection&amp;nbsp;&lt;div&gt;&lt;span style=&quot;background-color: transparent; color: light-dark(rgb(0, 0, 0), rgb(255, 255, 255));&quot;&gt;of&amp;nbsp;&lt;/span&gt;&lt;div&gt;Medical Data&amp;nbsp; &amp;nbsp;&lt;/div&gt;&lt;/div&gt;" style="rounded=1;whiteSpace=wrap;html=1;" vertex="1" parent="1">
          <mxGeometry x="90" y="110" width="120" height="60" as="geometry" />
        </mxCell>
        <mxCell id="qOFUqXaEyahtBM9zJrHG-1" value="Medical Books" style="whiteSpace=wrap;html=1;rounded=1;" vertex="1" parent="1">
          <mxGeometry x="-90" y="40" width="90" height="40" as="geometry" />
        </mxCell>
        <mxCell id="qOFUqXaEyahtBM9zJrHG-5" value="Medical Articals" style="rounded=1;whiteSpace=wrap;html=1;" vertex="1" parent="1">
          <mxGeometry x="-90" y="120" width="90" height="40" as="geometry" />
        </mxCell>
        <mxCell id="qOFUqXaEyahtBM9zJrHG-7" value="Clinical Trials&amp;nbsp;" style="rounded=1;whiteSpace=wrap;html=1;" vertex="1" parent="1">
          <mxGeometry x="-90" y="200" width="90" height="40" as="geometry" />
        </mxCell>
        <mxCell id="qOFUqXaEyahtBM9zJrHG-8" value="" style="endArrow=classic;startArrow=classic;html=1;rounded=0;fontSize=12;startSize=8;endSize=8;curved=1;entryX=0;entryY=0.5;entryDx=0;entryDy=0;" edge="1" parent="1" target="jCC4d6OGvIc_1nwTDhuA-1">
          <mxGeometry width="50" height="50" relative="1" as="geometry">
            <mxPoint y="140" as="sourcePoint" />
            <mxPoint x="40" y="90" as="targetPoint" />
          </mxGeometry>
        </mxCell>
        <mxCell id="qOFUqXaEyahtBM9zJrHG-9" value="" style="endArrow=classic;startArrow=classic;html=1;rounded=0;fontSize=12;startSize=8;endSize=8;curved=1;entryX=0;entryY=0;entryDx=0;entryDy=0;exitX=1;exitY=0.75;exitDx=0;exitDy=0;" edge="1" parent="1" source="qOFUqXaEyahtBM9zJrHG-1" target="jCC4d6OGvIc_1nwTDhuA-1">
          <mxGeometry width="50" height="50" relative="1" as="geometry">
            <mxPoint y="60" as="sourcePoint" />
            <mxPoint x="50" y="10" as="targetPoint" />
          </mxGeometry>
        </mxCell>
        <mxCell id="qOFUqXaEyahtBM9zJrHG-10" value="" style="endArrow=classic;startArrow=classic;html=1;rounded=0;fontSize=12;startSize=8;endSize=8;curved=1;exitX=1;exitY=0.25;exitDx=0;exitDy=0;" edge="1" parent="1" source="qOFUqXaEyahtBM9zJrHG-7">
          <mxGeometry width="50" height="50" relative="1" as="geometry">
            <mxPoint x="40" y="220" as="sourcePoint" />
            <mxPoint x="90" y="170" as="targetPoint" />
          </mxGeometry>
        </mxCell>
        <mxCell id="qOFUqXaEyahtBM9zJrHG-14" value="" style="edgeStyle=none;curved=1;rounded=0;orthogonalLoop=1;jettySize=auto;html=1;fontSize=12;startSize=8;endSize=8;" edge="1" parent="1" source="qOFUqXaEyahtBM9zJrHG-11" target="qOFUqXaEyahtBM9zJrHG-13">
          <mxGeometry relative="1" as="geometry" />
        </mxCell>
        <mxCell id="qOFUqXaEyahtBM9zJrHG-11" value="Data Preprocesing&amp;nbsp;" style="whiteSpace=wrap;html=1;rounded=1;" vertex="1" parent="1">
          <mxGeometry x="250" y="110" width="120" height="60" as="geometry" />
        </mxCell>
        <mxCell id="qOFUqXaEyahtBM9zJrHG-16" value="" style="edgeStyle=none;curved=1;rounded=0;orthogonalLoop=1;jettySize=auto;html=1;fontSize=12;startSize=8;endSize=8;" edge="1" parent="1" source="qOFUqXaEyahtBM9zJrHG-13" target="qOFUqXaEyahtBM9zJrHG-15">
          <mxGeometry relative="1" as="geometry" />
        </mxCell>
        <mxCell id="qOFUqXaEyahtBM9zJrHG-13" value="Chunking of the data&amp;nbsp;" style="whiteSpace=wrap;html=1;rounded=1;" vertex="1" parent="1">
          <mxGeometry x="414" y="110" width="120" height="60" as="geometry" />
        </mxCell>
        <mxCell id="qOFUqXaEyahtBM9zJrHG-33" value="" style="edgeStyle=none;curved=1;rounded=0;orthogonalLoop=1;jettySize=auto;html=1;fontSize=12;startSize=8;endSize=8;" edge="1" parent="1" source="qOFUqXaEyahtBM9zJrHG-15" target="qOFUqXaEyahtBM9zJrHG-32">
          <mxGeometry relative="1" as="geometry" />
        </mxCell>
        <mxCell id="qOFUqXaEyahtBM9zJrHG-15" value="Emdedding Models&amp;nbsp;" style="rounded=1;whiteSpace=wrap;html=1;" vertex="1" parent="1">
          <mxGeometry x="414" y="220" width="120" height="60" as="geometry" />
        </mxCell>
        <mxCell id="qOFUqXaEyahtBM9zJrHG-17" value="" style="endArrow=classic;html=1;rounded=0;fontSize=12;startSize=8;endSize=8;curved=1;entryX=1;entryY=0.5;entryDx=0;entryDy=0;exitX=0.025;exitY=0.735;exitDx=0;exitDy=0;exitPerimeter=0;" edge="1" parent="1">
          <mxGeometry width="50" height="50" relative="1" as="geometry">
            <mxPoint x="624.25" y="159.99999999999997" as="sourcePoint" />
            <mxPoint x="534" y="230.6" as="targetPoint" />
            <Array as="points">
              <mxPoint x="550" y="225.6" />
            </Array>
          </mxGeometry>
        </mxCell>
        <mxCell id="qOFUqXaEyahtBM9zJrHG-18" value="Word Embedding&amp;nbsp;" style="ellipse;whiteSpace=wrap;html=1;" vertex="1" parent="1">
          <mxGeometry x="620" y="140" width="110" height="40" as="geometry" />
        </mxCell>
        <mxCell id="qOFUqXaEyahtBM9zJrHG-19" value="" style="endArrow=classic;html=1;rounded=0;fontSize=12;startSize=8;endSize=8;curved=1;" edge="1" parent="1">
          <mxGeometry width="50" height="50" relative="1" as="geometry">
            <mxPoint x="620" y="210" as="sourcePoint" />
            <mxPoint x="534" y="240" as="targetPoint" />
            <Array as="points" />
          </mxGeometry>
        </mxCell>
        <mxCell id="qOFUqXaEyahtBM9zJrHG-21" value="sentence Embedding" style="ellipse;whiteSpace=wrap;html=1;" vertex="1" parent="1">
          <mxGeometry x="620" y="190" width="110" height="40" as="geometry" />
        </mxCell>
        <mxCell id="qOFUqXaEyahtBM9zJrHG-22" value="" style="endArrow=classic;html=1;rounded=0;fontSize=12;startSize=8;endSize=8;curved=1;" edge="1" parent="1">
          <mxGeometry width="50" height="50" relative="1" as="geometry">
            <mxPoint x="620" y="267.5" as="sourcePoint" />
            <mxPoint x="534" y="252.5" as="targetPoint" />
          </mxGeometry>
        </mxCell>
        <mxCell id="qOFUqXaEyahtBM9zJrHG-23" value="Image Embedding" style="ellipse;whiteSpace=wrap;html=1;" vertex="1" parent="1">
          <mxGeometry x="620" y="250" width="110" height="40" as="geometry" />
        </mxCell>
        <mxCell id="qOFUqXaEyahtBM9zJrHG-24" value="" style="endArrow=classic;html=1;rounded=0;fontSize=12;startSize=8;endSize=8;curved=1;" edge="1" parent="1" source="qOFUqXaEyahtBM9zJrHG-25">
          <mxGeometry width="50" height="50" relative="1" as="geometry">
            <mxPoint x="610" y="300" as="sourcePoint" />
            <mxPoint x="534" y="270" as="targetPoint" />
          </mxGeometry>
        </mxCell>
        <mxCell id="qOFUqXaEyahtBM9zJrHG-27" value="" style="edgeStyle=none;curved=1;rounded=0;orthogonalLoop=1;jettySize=auto;html=1;fontSize=12;startSize=8;endSize=8;" edge="1" parent="1" source="qOFUqXaEyahtBM9zJrHG-25" target="qOFUqXaEyahtBM9zJrHG-26">
          <mxGeometry relative="1" as="geometry" />
        </mxCell>
        <mxCell id="qOFUqXaEyahtBM9zJrHG-28" value="" style="edgeStyle=none;curved=1;rounded=0;orthogonalLoop=1;jettySize=auto;html=1;fontSize=12;startSize=8;endSize=8;" edge="1" parent="1" source="qOFUqXaEyahtBM9zJrHG-25" target="qOFUqXaEyahtBM9zJrHG-26">
          <mxGeometry relative="1" as="geometry" />
        </mxCell>
        <mxCell id="qOFUqXaEyahtBM9zJrHG-29" value="" style="edgeStyle=none;curved=1;rounded=0;orthogonalLoop=1;jettySize=auto;html=1;fontSize=12;startSize=8;endSize=8;" edge="1" parent="1" source="qOFUqXaEyahtBM9zJrHG-25" target="qOFUqXaEyahtBM9zJrHG-26">
          <mxGeometry relative="1" as="geometry" />
        </mxCell>
        <mxCell id="qOFUqXaEyahtBM9zJrHG-31" value="" style="edgeStyle=none;curved=1;rounded=0;orthogonalLoop=1;jettySize=auto;html=1;fontSize=12;startSize=8;endSize=8;" edge="1" parent="1" source="qOFUqXaEyahtBM9zJrHG-25" target="qOFUqXaEyahtBM9zJrHG-30">
          <mxGeometry relative="1" as="geometry" />
        </mxCell>
        <mxCell id="qOFUqXaEyahtBM9zJrHG-25" value="Pretrained Models&amp;nbsp;" style="ellipse;whiteSpace=wrap;html=1;" vertex="1" parent="1">
          <mxGeometry x="620" y="310" width="110" height="40" as="geometry" />
        </mxCell>
        <mxCell id="qOFUqXaEyahtBM9zJrHG-26" value="Bert&amp;nbsp;" style="ellipse;whiteSpace=wrap;html=1;" vertex="1" parent="1">
          <mxGeometry x="790" y="260" width="110" height="40" as="geometry" />
        </mxCell>
        <mxCell id="qOFUqXaEyahtBM9zJrHG-30" value="Gpt" style="ellipse;whiteSpace=wrap;html=1;" vertex="1" parent="1">
          <mxGeometry x="790" y="350" width="110" height="40" as="geometry" />
        </mxCell>
        <mxCell id="qOFUqXaEyahtBM9zJrHG-35" value="" style="edgeStyle=none;curved=1;rounded=0;orthogonalLoop=1;jettySize=auto;html=1;fontSize=12;startSize=8;endSize=8;" edge="1" parent="1" source="qOFUqXaEyahtBM9zJrHG-32" target="qOFUqXaEyahtBM9zJrHG-34">
          <mxGeometry relative="1" as="geometry" />
        </mxCell>
        <mxCell id="qOFUqXaEyahtBM9zJrHG-32" value="Vector Embedding" style="whiteSpace=wrap;html=1;rounded=1;" vertex="1" parent="1">
          <mxGeometry x="250" y="220" width="120" height="60" as="geometry" />
        </mxCell>
        <mxCell id="qOFUqXaEyahtBM9zJrHG-34" value="PineCone&amp;nbsp;&lt;div&gt;&lt;div&gt;Vector&amp;nbsp;&lt;/div&gt;&lt;div&gt;Data Base&amp;nbsp;&lt;/div&gt;&lt;/div&gt;" style="whiteSpace=wrap;html=1;rounded=1;" vertex="1" parent="1">
          <mxGeometry x="90" y="220" width="120" height="60" as="geometry" />
        </mxCell>
        <mxCell id="qOFUqXaEyahtBM9zJrHG-36" value="Knowledge Base" style="text;strokeColor=none;fillColor=none;html=1;align=center;verticalAlign=middle;whiteSpace=wrap;rounded=0;fontSize=16;" vertex="1" parent="1">
          <mxGeometry x="85" y="190" width="130" height="30" as="geometry" />
        </mxCell>
        <mxCell id="qOFUqXaEyahtBM9zJrHG-37" value="PDF" style="text;strokeColor=none;fillColor=none;html=1;align=center;verticalAlign=middle;whiteSpace=wrap;rounded=0;fontSize=16;" vertex="1" parent="1">
          <mxGeometry x="-80" y="10" width="60" height="30" as="geometry" />
        </mxCell>
      </root>
    </mxGraphModel>
  </diagram>
</mxfile>
